<?xml version="1.0" standalone="no"?>
<!DOCTYPE svg PUBLIC "-//W3C//DTD SVG 20010904//EN"
 "http://www.w3.org/TR/2001/REC-SVG-20010904/DTD/svg10.dtd">
<svg version="1.0" xmlns="http://www.w3.org/2000/svg"
 width="1170.000000pt" height="1170.000000pt" viewBox="0 0 1170.000000 1170.000000"
 preserveAspectRatio="xMidYMid meet">

<g transform="translate(0.000000,1170.000000) scale(0.100000,-0.100000)"
fill="#000000" stroke="none">
<path d="M5307 11459 c-86 -6 -150 -15 -167 -24 -16 -8 -46 -15 -68 -15 -50 0
-236 -26 -326 -46 -39 -9 -103 -21 -142 -29 -39 -7 -81 -18 -92 -24 -12 -6
-61 -20 -109 -31 -116 -25 -255 -66 -323 -95 -30 -12 -73 -26 -95 -30 -21 -4
-55 -15 -75 -25 -20 -10 -61 -25 -91 -34 -31 -9 -64 -23 -75 -31 -10 -8 -25
-15 -33 -15 -7 0 -50 -17 -95 -39 -44 -21 -99 -46 -121 -56 -22 -9 -53 -24
-70 -32 -16 -9 -47 -24 -67 -34 -20 -11 -43 -19 -51 -19 -7 0 -22 -8 -33 -18
-10 -10 -38 -25 -60 -34 -23 -9 -58 -28 -79 -42 -21 -14 -42 -26 -47 -26 -6 0
-24 -10 -41 -22 -18 -13 -48 -31 -67 -41 -19 -9 -49 -27 -67 -40 -17 -12 -68
-44 -112 -72 -84 -52 -101 -64 -296 -205 -302 -220 -637 -527 -866 -795 -19
-22 -41 -47 -50 -55 -9 -8 -42 -46 -73 -85 -31 -38 -65 -79 -75 -90 -10 -11
-30 -38 -45 -60 -36 -56 -60 -89 -144 -199 -41 -53 -80 -109 -88 -124 -8 -15
-33 -54 -54 -87 -98 -151 -198 -324 -225 -385 -8 -19 -22 -46 -30 -60 -8 -14
-22 -41 -31 -60 -9 -19 -49 -102 -89 -185 -40 -82 -78 -168 -85 -190 -7 -22
-18 -47 -26 -55 -7 -9 -18 -37 -24 -63 -5 -26 -19 -67 -30 -90 -30 -66 -70
-185 -92 -272 -11 -44 -28 -102 -39 -130 -10 -27 -25 -81 -33 -120 -8 -38 -21
-86 -29 -105 -8 -19 -22 -84 -31 -145 -9 -60 -23 -131 -30 -157 -8 -25 -20
-99 -26 -165 -7 -65 -18 -134 -25 -153 -46 -122 -46 -1290 0 -1410 7 -19 18
-84 25 -145 7 -60 21 -153 31 -205 11 -52 24 -124 30 -160 6 -36 17 -76 24
-90 7 -14 21 -66 30 -115 10 -50 24 -101 30 -115 7 -14 21 -61 30 -105 10 -44
26 -97 36 -117 11 -21 25 -61 33 -90 8 -29 26 -79 40 -111 14 -32 26 -70 26
-86 0 -16 7 -34 14 -41 8 -6 20 -28 27 -48 11 -34 90 -206 143 -312 13 -25 29
-62 35 -82 7 -20 18 -42 26 -48 8 -6 19 -27 25 -46 7 -20 27 -58 46 -87 19
-28 34 -55 34 -60 0 -4 8 -20 19 -35 10 -15 51 -83 92 -152 69 -117 170 -264
279 -405 26 -33 53 -71 60 -85 7 -14 28 -43 47 -65 50 -58 53 -63 69 -93 18
-36 18 -70 -3 -107 -60 -109 -85 -156 -108 -202 -13 -29 -28 -53 -33 -53 -5 0
-16 -15 -24 -34 -17 -34 -109 -171 -147 -216 -11 -14 -38 -47 -59 -75 -57 -73
-224 -241 -279 -280 -162 -115 -335 -225 -353 -225 -5 0 -41 -31 -79 -70 -68
-68 -69 -71 -90 -158 -26 -112 -26 -130 2 -238 22 -83 27 -93 84 -152 56 -59
68 -67 159 -98 91 -32 114 -35 284 -45 278 -17 685 2 779 36 24 8 84 20 134
25 49 6 99 16 111 22 11 7 64 22 116 34 52 12 138 38 190 57 52 19 122 45 155
56 33 12 83 32 110 46 28 13 88 42 135 64 47 23 112 57 145 75 33 19 78 44
100 56 22 12 54 32 70 45 50 37 160 101 185 108 23 6 130 -37 170 -68 8 -7 67
-36 130 -65 63 -29 157 -72 208 -96 51 -24 98 -44 105 -44 6 0 26 -9 42 -20
17 -11 39 -20 50 -20 11 0 45 -12 75 -26 30 -15 81 -32 113 -40 32 -8 72 -21
90 -30 31 -17 141 -49 292 -85 44 -11 107 -28 140 -39 33 -11 87 -24 120 -30
33 -5 80 -14 105 -20 104 -23 200 -39 280 -45 47 -3 101 -13 120 -20 118 -47
1328 -46 1418 1 15 8 45 14 67 14 51 0 220 25 310 45 39 9 98 20 132 25 34 5
85 18 115 29 29 11 84 24 123 31 38 6 74 15 80 20 6 5 54 20 105 33 52 14 108
32 125 41 16 8 54 21 83 27 30 6 82 24 116 40 33 16 69 29 80 29 10 0 33 8 50
19 17 10 42 22 56 26 23 6 58 22 273 124 45 22 98 47 117 56 19 9 62 32 95 50
33 19 80 44 105 56 25 12 56 30 70 39 14 10 59 37 100 61 41 24 103 63 138 86
34 24 65 43 68 43 6 0 184 126 221 157 12 10 47 36 79 58 49 35 185 145 286
233 119 104 330 310 447 437 127 139 262 297 301 355 13 19 27 37 30 40 18 16
140 189 243 344 81 123 155 247 191 321 13 28 31 57 39 64 9 7 18 25 22 40 3
16 17 43 31 62 13 18 24 36 24 41 0 4 27 65 61 135 97 204 107 227 114 253 4
14 16 37 26 52 11 14 19 34 19 45 0 10 12 45 26 78 14 33 34 92 44 132 10 40
25 82 33 95 8 13 22 57 32 98 9 41 23 87 31 101 7 14 18 57 24 95 6 38 20 92
30 119 10 28 24 79 29 115 6 36 19 103 30 150 11 47 25 139 31 205 7 66 18
134 25 152 26 59 38 406 31 863 -6 413 -12 513 -34 575 -6 17 -16 80 -22 140
-5 61 -19 151 -30 200 -11 50 -25 121 -31 158 -5 38 -18 87 -28 111 -10 23
-22 66 -26 96 -4 29 -18 84 -31 122 -14 38 -29 92 -35 121 -6 29 -20 68 -30
88 -10 20 -23 58 -30 85 -6 27 -24 81 -40 121 -16 39 -29 79 -29 88 0 9 -8 29
-19 43 -10 15 -22 38 -25 52 -4 14 -20 52 -36 85 -15 33 -49 103 -74 155 -25
53 -54 116 -66 140 -11 25 -37 74 -56 110 -20 36 -49 90 -65 120 -60 111 -128
221 -218 355 -244 361 -493 659 -789 942 -84 81 -163 154 -177 163 -14 9 -31
24 -38 33 -17 22 -203 174 -272 222 -31 22 -63 46 -71 53 -8 8 -45 35 -82 60
-37 25 -69 48 -72 52 -5 6 -148 100 -267 175 -26 17 -61 36 -77 43 -17 7 -33
17 -36 22 -3 5 -30 21 -60 35 -30 15 -82 42 -115 60 -61 35 -78 43 -245 122
-172 82 -215 101 -240 108 -14 4 -38 15 -55 25 -16 10 -46 21 -65 25 -19 4
-55 17 -80 29 -25 12 -70 28 -100 35 -30 8 -71 22 -90 31 -19 10 -58 22 -86
28 -28 6 -74 20 -101 31 -28 11 -87 27 -132 35 -45 9 -91 21 -103 27 -11 6
-53 17 -92 24 -39 8 -113 23 -165 34 -51 11 -146 25 -210 31 -64 6 -129 16
-146 22 -16 6 -55 15 -85 19 -78 13 -1017 19 -1183 8z m983 -379 c96 -11 225
-24 285 -30 61 -6 132 -17 158 -25 26 -8 96 -20 155 -26 71 -8 116 -18 134
-31 14 -10 41 -18 60 -19 18 0 71 -10 118 -23 47 -13 123 -33 170 -45 47 -13
103 -31 126 -42 22 -10 49 -19 60 -19 10 0 34 -9 52 -20 17 -11 53 -25 80 -31
26 -6 61 -19 78 -29 17 -9 55 -25 84 -35 30 -10 76 -29 101 -42 26 -12 50 -23
53 -23 13 0 357 -176 451 -230 28 -16 70 -41 95 -55 99 -56 354 -231 520 -357
229 -174 589 -521 800 -772 14 -16 32 -37 40 -45 16 -18 126 -160 150 -195 8
-12 40 -55 70 -96 30 -41 67 -93 81 -115 14 -22 51 -78 81 -125 51 -78 90
-142 128 -213 21 -37 216 -428 251 -502 16 -33 29 -66 29 -73 0 -7 11 -34 24
-60 13 -26 29 -67 36 -92 7 -25 23 -67 36 -94 13 -28 24 -59 24 -71 0 -11 9
-39 20 -60 12 -22 27 -69 35 -105 8 -36 23 -91 35 -122 11 -32 25 -90 31 -130
6 -40 19 -91 29 -113 10 -22 24 -87 30 -144 6 -57 16 -115 21 -128 15 -39 39
-202 39 -263 0 -30 9 -127 20 -214 25 -202 28 -644 5 -801 -8 -55 -19 -165
-25 -245 -6 -80 -19 -181 -30 -225 -11 -44 -25 -123 -31 -175 -6 -52 -19 -113
-29 -135 -10 -22 -23 -71 -29 -110 -5 -38 -24 -111 -41 -162 -16 -51 -30 -103
-30 -115 0 -13 -12 -45 -25 -73 -14 -27 -25 -59 -25 -71 0 -12 -10 -41 -23
-65 -13 -24 -29 -66 -36 -94 -7 -27 -18 -59 -25 -70 -7 -11 -19 -38 -26 -60
-29 -94 -261 -559 -358 -716 -110 -180 -218 -338 -345 -504 -255 -334 -634
-711 -982 -975 -103 -79 -380 -270 -390 -270 -3 0 -37 -21 -77 -47 -90 -58
-101 -64 -356 -191 -275 -138 -327 -162 -342 -162 -6 0 -35 -12 -63 -26 -28
-14 -74 -31 -102 -39 -28 -7 -69 -22 -90 -34 -22 -12 -51 -21 -65 -21 -14 0
-38 -8 -55 -18 -16 -10 -56 -24 -87 -31 -31 -7 -98 -25 -148 -41 -50 -16 -116
-32 -148 -36 -31 -3 -73 -15 -92 -25 -19 -10 -79 -22 -135 -29 -55 -6 -133
-19 -174 -30 -41 -11 -138 -24 -216 -29 -78 -6 -193 -17 -255 -26 -94 -14
-168 -16 -439 -12 -179 3 -347 10 -374 16 -26 6 -114 15 -196 21 -81 6 -175
17 -207 26 -84 22 -212 44 -258 44 -21 0 -53 8 -70 19 -17 10 -58 22 -91 26
-33 4 -98 19 -145 34 -47 16 -110 34 -140 40 -30 7 -73 22 -96 32 -22 10 -49
19 -60 19 -11 0 -37 9 -59 21 -21 12 -62 27 -90 34 -28 8 -74 25 -102 39 -28
14 -56 26 -62 26 -22 0 -500 235 -616 303 -61 36 -78 41 -130 42 -56 0 -65 -3
-134 -50 -40 -27 -85 -58 -100 -67 -14 -10 -35 -25 -46 -33 -74 -60 -306 -190
-490 -275 -120 -55 -389 -145 -495 -166 -41 -8 -96 -21 -121 -29 -25 -9 -101
-22 -170 -30 -68 -7 -176 -20 -239 -29 -140 -18 -490 -39 -512 -31 -28 11 -31
38 -6 59 27 21 97 84 189 170 37 33 93 84 125 111 90 77 294 285 339 345 22
29 49 62 60 74 27 28 142 197 207 304 45 74 134 237 159 292 11 25 34 72 50
106 17 33 35 90 41 126 15 85 5 105 -115 246 -100 115 -251 311 -307 397 -35
53 -117 177 -150 225 -10 14 -28 45 -41 69 -13 25 -36 65 -51 90 -15 25 -32
57 -39 71 -6 14 -20 41 -30 60 -11 19 -45 85 -75 145 -31 61 -60 115 -64 120
-4 6 -15 34 -24 62 -10 29 -22 55 -26 58 -5 3 -18 35 -29 70 -11 36 -27 75
-35 87 -8 13 -22 50 -31 82 -10 33 -26 73 -36 90 -10 17 -19 45 -19 61 0 17
-7 41 -16 53 -9 13 -27 67 -40 120 -13 53 -29 106 -34 117 -14 28 -40 144 -40
179 0 16 -8 43 -19 60 -11 18 -21 61 -25 101 -3 39 -13 102 -22 140 -30 134
-33 154 -44 298 -6 80 -17 185 -25 234 -16 99 -20 643 -5 748 5 33 14 110 20
170 23 242 32 317 45 359 7 24 18 88 25 142 6 55 20 117 30 139 10 22 23 73
29 113 6 40 22 103 35 141 13 38 30 96 36 128 7 31 21 73 31 93 11 19 19 44
19 55 0 12 9 38 20 60 11 21 27 62 35 92 9 29 27 74 40 99 14 26 25 55 25 64
0 20 19 61 148 320 51 102 92 188 92 191 0 4 18 36 40 70 22 35 49 81 60 102
12 21 41 68 66 104 24 36 52 79 60 96 19 36 139 206 211 297 7 8 29 38 50 67
21 28 58 73 83 100 24 26 77 86 118 133 153 175 460 467 650 619 112 90 318
239 396 286 26 17 66 41 87 55 120 78 276 165 444 248 252 124 283 139 330
153 22 6 54 19 71 29 17 10 57 25 89 35 32 9 74 25 94 36 19 10 46 19 59 19
13 0 44 11 70 25 26 14 57 25 69 25 12 0 72 16 133 35 61 19 137 38 168 41 32
4 71 14 87 24 17 10 62 21 100 24 39 4 102 14 140 22 139 31 162 35 300 45 77
5 178 16 225 24 142 22 637 20 850 -5z"/>
<path d="M3549 7060 c-63 -11 -97 -30 -150 -87 -83 -89 -124 -198 -185 -498
-43 -214 -75 -328 -115 -411 -31 -65 -97 -134 -128 -134 -38 0 -129 114 -351
440 -84 124 -174 252 -199 285 -160 209 -328 325 -472 325 -60 0 -103 -33
-135 -106 -52 -118 -54 -139 -54 -620 0 -569 3 -607 113 -1379 l32 -230 36 -3
c32 -3 42 3 92 52 91 90 90 85 77 228 -6 69 -24 194 -40 279 -16 85 -46 246
-66 359 l-35 205 4 245 c3 196 8 267 25 353 27 135 41 187 50 187 15 0 102
-98 159 -180 33 -47 113 -167 178 -268 203 -315 326 -455 452 -515 59 -27 71
-29 146 -25 51 3 95 11 117 22 79 40 163 147 210 266 12 30 48 156 80 280 87
333 146 465 238 536 52 40 53 40 117 -50 176 -249 281 -576 411 -1283 l28
-152 45 -47 c89 -91 178 -98 220 -17 29 58 4 345 -54 622 -117 554 -277 950
-469 1158 -127 137 -238 185 -377 163z"/>
<path d="M9644 6696 c-77 -35 -83 -112 -28 -371 32 -151 36 -186 36 -315 0
-265 -56 -535 -152 -736 -50 -104 -148 -212 -228 -251 -75 -37 -194 -40 -257
-6 -159 85 -292 369 -346 741 l-22 147 28 155 c64 359 64 354 11 395 -24 18
-45 25 -79 25 -53 0 -89 -25 -137 -95 l-30 -44 0 -263 c0 -376 33 -622 115
-873 91 -274 223 -449 401 -533 55 -25 68 -27 194 -27 131 0 137 1 203 32 127
60 216 143 311 291 108 167 213 469 252 727 21 135 31 666 15 761 -15 90 -62
186 -108 221 -42 32 -129 42 -179 19z"/>
<path d="M5270 6545 c-215 -46 -411 -228 -513 -475 -90 -219 -114 -572 -54
-801 74 -285 260 -488 530 -577 140 -47 215 -55 432 -49 255 7 398 33 512 91
75 37 111 72 123 118 15 53 5 92 -31 122 -59 50 -193 45 -439 -16 -116 -29
-137 -32 -285 -31 -219 2 -352 37 -443 117 -38 34 -71 96 -72 136 l0 25 86 -4
c195 -8 392 72 552 223 97 92 156 172 208 281 54 114 76 205 76 320 0 261
-129 453 -351 521 -59 18 -244 17 -331 -1z m219 -275 c69 -13 114 -50 148
-118 25 -51 28 -68 28 -162 0 -99 -2 -110 -33 -172 -75 -153 -253 -259 -432
-257 -138 1 -172 36 -178 184 -5 108 14 198 59 287 61 121 183 217 300 237 30
5 55 9 55 10 1 0 25 -3 53 -9z"/>
<path d="M7433 6036 c-35 -13 -88 -39 -119 -57 -85 -51 -217 -180 -268 -263
-46 -72 -96 -204 -96 -250 0 -36 -13 -39 -42 -8 -67 71 -125 207 -156 367
l-18 90 -47 3 c-68 4 -133 -27 -152 -72 -23 -54 -19 -94 31 -290 160 -631 332
-922 518 -875 70 18 73 23 90 160 36 289 104 566 173 706 87 175 193 260 291
233 48 -12 158 -123 195 -196 60 -118 115 -362 158 -694 11 -91 23 -167 25
-169 2 -3 56 -5 120 -5 l117 -1 -6 200 c-11 371 -77 676 -185 858 -53 90 -151
187 -228 229 -115 62 -286 77 -401 34z"/>
</g>
</svg>
